<?xml version="1.0" standalone="no"?><!DOCTYPE svg PUBLIC "-//W3C//DTD SVG 1.1//EN" "http://www.w3.org/Graphics/SVG/1.1/DTD/svg11.dtd"><svg width="50" height="50" viewBox="0 0 50 50" version="1.1" xmlns="http://www.w3.org/2000/svg" xmlns:xlink="http://www.w3.org/1999/xlink"><defs><style type="text/css"><![CDATA[
@font-face { font-family: ifont; src: url("//at.alicdn.com/t/font_1442373896_4754455.eot?#iefix") format("embedded-opentype"), url("//at.alicdn.com/t/font_1442373896_4754455.woff") format("woff"), url("//at.alicdn.com/t/font_1442373896_4754455.ttf") format("truetype"), url("//at.alicdn.com/t/font_1442373896_4754455.svg#ifont") format("svg"); }

]]></style></defs><g class="transform-group"><g transform="scale(0.048828125, 0.048828125)"><path d="M961.4 654.5c-3.8-12.2-13.9-21.1-26-22.9l-111.9-17-50-105.8c-5.4-11.6-16.6-18.8-28.9-18.8-12.3 0-23.5 7.3-28.9 18.7l-50 105.8-111.9 16.9c-12.1 1.8-22.2 10.7-26 22.9-3.8 12.2-0.6 25.5 8.1 34.4l80.9 82.3-19.1 116.3c-2 12.6 2.9 25.4 12.8 32.9 5.6 4.3 12.3 6.4 18.9 6.4 5.1 0 10.3-1.3 15-3.9l100-54.8 100.1 54.9c4.7 2.6 9.9 3.9 15 3.9 6.7 0 13.4-2.1 18.9-6.4 9.9-7.5 14.9-20.3 12.8-32.9l-19.1-116.3 80.9-82.3C962 680 965.2 666.7 961.4 654.5zM882.3 680.3l-58.9 59.9-7.1 7.2 1.6 10 13.9 84.6c0.3 1.9-0.4 3.8-1.7 4.9l0 0 0 0c-0.5 0.4-1.1 0.6-1.7 0.6-0.4 0-0.9-0.1-1.4-0.4l-72.8-39.9-9.6-5.2-9.6 5.2L662.2 847l0 0 0 0c-0.4 0.2-0.8 0.3-1.3 0.3-0.3 0-1.1-0.1-1.7-0.6l0 0 0 0c-1.3-1-2-3-1.7-4.9l13.9-84.6 1.6-10-7.1-7.2-58.9-59.9c-1.2-1.3-1.7-3.4-1.1-5.2 0.5-1.6 1.7-2.7 2.9-2.9l81.5-12.4 10.5-1.6 4.5-9.6 36.4-77c0.6-1.4 1.8-2.3 3-2.3 1.2 0 2.4 0.8 3 2.3l0 0 0 0 36.4 77 4.5 9.6 10.5 1.6 81.5 12.4c1.3 0.2 2.5 1.3 2.9 2.9C884 676.9 883.5 679 882.3 680.3zM501.5 862.8l-136 0c-2.6 0-5 0.3-7.4 0.9L244 863.7c-5.7 0-10.1-3.8-10.1-7.2L233.9 163.6c0-3.4 4.3-7.2 10.1-7.2l380.3 0 0 151c0 27.8 22.6 50.3 50.3 50.3l138.2 0L812.8 466c0 17.7 14.3 32 32 32s32-14.3 32-32l0-1L876.8 330l0-30L692.5 94.1l-20.5 0-51.2 0L231.1 94.1c-33.9 0-61.4 26.2-61.4 58.5l0 715.7c0 32.2 27.5 58.5 61.4 58.5l134.4 0L452 926.8l49.5 0c17.7 0 32-14.3 32-32S519.1 862.8 501.5 862.8zM672.1 160.9l123.5 137.9L672.1 298.8 672.1 160.9z" fill="#09bb07"></path></g></g></svg>