<?xml version="1.0" standalone="no"?><!DOCTYPE svg PUBLIC "-//W3C//DTD SVG 1.1//EN" "http://www.w3.org/Graphics/SVG/1.1/DTD/svg11.dtd"><svg width="50" height="50" viewBox="0 0 50 50" version="1.1" xmlns="http://www.w3.org/2000/svg" xmlns:xlink="http://www.w3.org/1999/xlink"><defs><style type="text/css"><![CDATA[
@font-face { font-family: ifont; src: url("//at.alicdn.com/t/font_1442373896_4754455.eot?#iefix") format("embedded-opentype"), url("//at.alicdn.com/t/font_1442373896_4754455.woff") format("woff"), url("//at.alicdn.com/t/font_1442373896_4754455.ttf") format("truetype"), url("//at.alicdn.com/t/font_1442373896_4754455.svg#ifont") format("svg"); }

]]></style></defs><g class="transform-group"><g transform="scale(0.048828125, 0.048828125)"><path d="M915.712 431.296c-24-200.896-195.84-356.736-404.352-356.736-208.64 0-380.352 155.904-404.352 356.736C82.368 444.224 65.024 469.12 65.024 498.688l0 115.712c0 42.56 34.752 77.184 77.632 77.184 42.88 0 77.568 3.968 77.568-38.656l0-154.24c0-26.368-14.144-48.448-34.432-62.4C207.232 275.968 344 151.68 511.296 151.68s304.064 124.224 325.504 284.672c-20.288 13.888-34.432 36.032-34.432 62.4l0 115.712c0 6.656 2.24 12.608 3.84 18.816-30.464 66.88-78.912 125.696-138.624 164.352-14.272-17.28-34.944-28.928-59.2-28.928-42.88 0-77.696 34.496-77.696 77.056s34.752 77.184 77.696 77.184c42.88 0 77.568-34.624 77.568-77.184 0-0.32-0.192-0.576-0.192-0.896 72.32-34.368 132.736-89.472 174.016-157.312 6.592 1.792 13.056 4.032 20.224 4.032 42.88 0 77.632-34.624 77.632-77.184L957.632 498.688C957.632 469.12 940.288 444.224 915.712 431.296z" fill="#375b96"></path></g></g></svg>