<?xml version="1.0" standalone="no"?><!DOCTYPE svg PUBLIC "-//W3C//DTD SVG 1.1//EN" "http://www.w3.org/Graphics/SVG/1.1/DTD/svg11.dtd"><svg width="50" height="50" viewBox="0 0 50 50" version="1.1" xmlns="http://www.w3.org/2000/svg" xmlns:xlink="http://www.w3.org/1999/xlink"><defs><style type="text/css"><![CDATA[
@font-face { font-family: ifont; src: url("//at.alicdn.com/t/font_1442373896_4754455.eot?#iefix") format("embedded-opentype"), url("//at.alicdn.com/t/font_1442373896_4754455.woff") format("woff"), url("//at.alicdn.com/t/font_1442373896_4754455.ttf") format("truetype"), url("//at.alicdn.com/t/font_1442373896_4754455.svg#ifont") format("svg"); }

]]></style></defs><g class="transform-group"><g transform="scale(0.048828125, 0.048828125)"><path d="M414.378 463.6723 111.578112 463.6723c-26.708 0-48.4475-21.7283-48.4475-48.4475L63.130612 112.425984c0-26.7192 21.7395-48.4475 48.4475-48.4475l302.799872 0c26.708 0 48.4475 21.7283 48.4475 48.4475L462.825484 415.224832C462.8255 441.9441 441.0849 463.6723 414.378 463.6723zM111.5781 112.426 111.5781 415.224832l302.823424 0-0.0236-302.7988L111.578112 112.426032zM910.9658 463.6723l-302.7968 0c-26.708 0-48.4475-21.7283-48.4475-48.4475L559.7215 112.425984c0-26.7192 21.7395-48.4475 48.4475-48.4475l302.7968 0c26.708 0 48.4475 21.7283 48.4475 48.4475L959.4133 415.224832C959.4132 441.9441 937.6737 463.6723 910.9658 463.6723zM608.169 112.426 608.169 415.224832l302.821376 0-0.0236-302.7988L608.16896 112.426032zM414.378 960.2621 111.578112 960.2621c-26.708 0-48.4475-21.7395-48.4475-48.4475L63.130612 609.014784c0-26.7069 21.7395-48.4475 48.4475-48.4475l302.799872 0c26.708 0 48.4475 21.7395 48.4475 48.4475l0 302.798848C462.8255 938.5226 441.0849 960.2621 414.378 960.2621zM111.5781 609.0148l0 302.798848 302.846976 0-0.0471-302.7988L111.578112 609.014848zM910.9658 960.2621l-302.7968 0c-26.708 0-48.4475-21.7395-48.4475-48.4475L559.7215 609.014784c0-26.7069 21.7395-48.4475 48.4475-48.4475l302.7968 0c26.708 0 48.4475 21.7395 48.4475 48.4475l0 302.798848C959.4132 938.5226 937.6737 960.2621 910.9658 960.2621zM608.169 609.0148l0 302.798848L911.014912 911.813648l-0.0492-302.7988L608.16896 609.014848z" fill="#35495e"></path></g></g></svg>